<svg id="Capa_1" xmlns="http://www.w3.org/2000/svg" viewBox="-101 192.5 408.5 408.5"><style>.st0{fill:#664b3a}.st1{fill:#dec8ae}.st2{fill:#f7f1e6}.st3{fill:#f3dbbd}.st4{fill:#fff}</style><g id="Layer_2_3_"><path class="st0" d="M140.4 430.3c8.4 5 17.8 10.9 27 18.1 11.9 4.2 25.1 10.2 40.4 18.6 2.3 1.3 4.7 2.5 7.1 3.7.3-2.5.4-5 .3-7.3-.8-14.8-9.3-9.2-11.5-8-4 2.3-8.9.4-12.4-3.9 14.8-7.7 23.1-22.8 23.1-35.1 0-11.1-7-7.3-9.1-6.4-11.1 4.5-21.8-17.6-6.5-34.2 8.3-8 4.1-13.6 1.6-16.4-2.8-3.2-5.9-6.1-8.9-8.5-.9 1.7-1.6 3.1-2.4 4.5-6.1 30-24.4 59.5-48.7 74.9zM70.3 431.8c-.1-.1-.2-.1-.3-.2 0 2.7-.1 5.7 0 9h.3v-8.8zM41.3 447.6c8.3-7.4 20.3-12.2 28.7-16-21.8-14-41.1-40.9-48.7-67.7-2.1-1.8-4.2-5.5-6.4-11.5-2.3 2-4.7 4.4-7 6.9-2.5 2.8-6.7 8.4 1.6 16.4 15.3 16.5 4.6 38.6-6.5 34.2-2.2-.9-9.2-4.7-9.1 6.4 0 12.3 8.3 27.4 23.1 35.1-3.5 4.3-8.3 6.2-12.4 3.9-2.2-1.2-10.7-6.8-11.5 8-.1 2.1-.1 4.3.2 6.5 1.8-.9 3.7-1.9 5.4-2.8 16.2-9 30.1-15.1 42.6-19.4z"/><path class="st1" d="M103.7 542.1c0-.1.1-.2.1-.3 0-.1-.1-.1-.1-.2v.5zM70 440.6c0 2.6.1 5.4.3 8.3v-8.4c-.1.1-.2.1-.3.1z"/><path class="st2" d="M103.6 533.2c.2 1.8.3 3.7.3 5.6.1-1.8.2-3.8-.3-5.6zM103.9 541.6v0z"/><path class="st2" d="M214.9 470.7c-2.4-1.2-4.8-2.4-7.1-3.7-15.2-8.4-28.4-14.4-40.4-18.6 9.6 8.7 17.3 18.8 18.9 28-9.8-7.2-17-11.9-39.9-12.1 5.5 6 13.2 21.5 16.2 35.6-14.2 0-37.4 10.3-58.7 41.9l-.1-.1c0 .1-.1.2-.1.3v-.5C82.5 510.2 59.4 500 45.2 500c3-14.1 10.7-29.6 16.2-35.6-22.9.2-30 4.9-39.9 12.1 1.6-9.5 9.7-19.9 19.7-28.8C28.8 451.9 14.9 458-1.3 467c-1.8 1-3.6 1.9-5.4 2.8-19 9.5-41.3 17-41.3 43.8v60.7c0 15.2 15.5 26.6 37.4 26.6H217c21.9 0 37.4-11.4 37.4-26.6v-60.7c.1-26-20.9-33.8-39.5-42.9z"/><path class="st1" d="M137.9 431.9c-10.4 6.1-21.8 9.7-33.7 9.7-12 0-23.4-3.6-33.9-9.7V449c.6 8.5 2 17.8 5.6 26.3 1.5 3.6 3.4 7 5.8 10.1 11.6 15.2 20 26.9 21.8 47.9.5 1.8.4 3.8.3 5.6v2.7c.1-26.5 9.1-39.1 22.2-56.2 2.5-3.3 4.5-7 6.1-10.8 6.1-14.6 5.8-31.7 5.8-42.7z"/><path class="st3" d="M70 431.6c.1.1.2.1.3.2 10.4 6.2 21.9 9.7 33.9 9.7 11.9 0 23.3-3.5 33.7-9.7 1.1-.7 1.4-.9 2.6-1.6 24.2-15.5 42.6-44.9 48.6-74.9-8.2 12.8-14.5 8.2-15.8-12.4-.9-13.7-8.7-29.6-24-40.9 2.6 6.5 4.3 13.7 5.1 21.6.5 5.5-1.3 17.2-16.3 15.9-34.1-5.1-64.2-20.9-80.8-38.3-17.3 12.8-23 31.5-22.7 42.2.3 12-5.9 26.7-13.1 20.5C29.1 390.7 46 416 67.8 430c.6.7.8.9 2.2 1.6z"/><path class="st4" d="M103.9 538.9c-.1-2-.2-3.8-.3-5.6-1.8-21-10.2-32.7-21.8-47.9-2.4-3.1-4.3-6.6-5.8-10.1-3.6-8.4-5.1-17.8-5.6-26.3-.2-2.9 0-5.5 0-8.2v-6.2-3c-1.5-.7-1-.6-2.2-1.2-8.4 3.8-18.5 9.9-26.9 17.2-10 8.9-18.2 19.3-19.7 28.8 9.8-7.2 17-11.9 39.9-12.1-5.5 6-13.2 21.5-16.2 35.6 14.1 0 37.3 10.2 58.5 41.6 0 .1.1.1.1.2l.1.1v-.3c-.1-.8-.1-1.7-.1-2.6zM137.9 431.9c.1 11 .4 28-5.6 42.6-1.6 3.8-3.6 7.5-6.1 10.8-13.1 17.1-22.1 29.7-22.2 56.2v.3c21.3-31.6 44.5-41.9 58.7-41.9-3-14.1-10.7-29.6-16.2-35.6 22.9.2 30 4.9 39.9 12.1-1.5-9.2-9.2-19.3-18.9-28-8.5-7.6-27-18.1-27-18.1s-1.6 1-2.6 1.6z"/><path class="st0" d="M21.3 364.1c7.3 6.2 13.5-8.5 13.1-20.5-.3-10.7 5.4-29.4 22.7-42.2 16.6 17.4 46.7 33.2 80.8 38.3 15 1.3 16.9-10.4 16.3-15.9-.8-7.9-2.5-15.1-5.1-21.6 15.3 11.2 23.1 27.2 24 40.9 1.3 20.5 7.6 25.1 15.8 12.4.8-1.3 1.7-2.8 2.6-4.4.6-1.1 1.2-2.3 1.8-3.5 6.7-14.3-1.7-59.7-28.9-89.4-4.1 7.4-11.7 12.6-23.1 12.6H70.8c-14 0-22.3-7.8-25.3-17.8-.1-.2-.1-.5-.2-.7C16 276.6 5.2 317.2 12 343.4c.9 3.5 1.8 6.5 2.8 9.1 2.2 6.1 4.4 9.8 6.5 11.6z"/></g><ellipse class="st0" cx="103.6" cy="262.8" rx="61.9" ry="29.7"/></svg>