<?xml version="1.0" encoding="utf-8"?>
<!-- Generator: Adobe Illustrator 19.0.0, SVG Export Plug-In . SVG Version: 6.00 Build 0)  -->
<svg version="1.1" id="Capa_1" xmlns="http://www.w3.org/2000/svg" xmlns:xlink="http://www.w3.org/1999/xlink" x="0px" y="0px"
	 viewBox="-101 192.5 408.5 408.5" style="enable-background:new -101 192.5 408.5 408.5;" xml:space="preserve">
<style type="text/css">
	.st0{fill:#664B3A;}
	.st1{fill:#DEC8AE;}
	.st2{fill:#F7F1E6;}
	.st3{fill:#F3DBBD;}
	.st4{fill:#FFFFFF;}
</style>
<g>
	<g id="Guides_For_Artboard_3_">
	</g>
	<g id="Artwork_3_">
	</g>
	<g id="Layer_2_3_">
		<g>
			<path class="st0" d="M140.4,430.3c8.4,5,17.8,10.9,27,18.1c11.9,4.2,25.1,10.2,40.4,18.6c2.3,1.3,4.7,2.5,7.1,3.7
				c0.3-2.5,0.4-5,0.3-7.3c-0.8-14.8-9.3-9.2-11.5-8c-4,2.3-8.9,0.4-12.4-3.9c14.8-7.7,23.1-22.8,23.1-35.1c0-11.1-7-7.3-9.1-6.4
				c-11.1,4.5-21.8-17.6-6.5-34.2c8.3-8,4.1-13.6,1.6-16.4c-2.8-3.2-5.9-6.1-8.9-8.5c-0.9,1.7-1.6,3.1-2.4,4.5
				C183,385.4,164.7,414.9,140.4,430.3z"/>
			<path class="st0" d="M70.3,431.8c-0.1-0.1-0.2-0.1-0.3-0.2c0,2.7-0.1,5.7,0,9c0.1,0,0.2,0,0.3,0L70.3,431.8L70.3,431.8z"/>
			<path class="st0" d="M41.3,447.6c8.3-7.4,20.3-12.2,28.7-16c-21.8-14-41.1-40.9-48.7-67.7c-2.1-1.8-4.2-5.5-6.4-11.5
				c-2.3,2-4.7,4.4-7,6.9c-2.5,2.8-6.7,8.4,1.6,16.4c15.3,16.5,4.6,38.6-6.5,34.2c-2.2-0.9-9.2-4.7-9.1,6.4
				c0,12.3,8.3,27.4,23.1,35.1c-3.5,4.3-8.3,6.2-12.4,3.9c-2.2-1.2-10.7-6.8-11.5,8c-0.1,2.1-0.1,4.3,0.2,6.5
				c1.8-0.9,3.7-1.9,5.4-2.8C14.9,458,28.8,451.9,41.3,447.6z"/>
			<path class="st1" d="M103.7,542.1c0-0.1,0.1-0.2,0.1-0.3c0-0.1-0.1-0.1-0.1-0.2C103.7,541.7,103.7,541.9,103.7,542.1z"/>
			<path class="st1" d="M70,440.6c0,2.6,0.1,5.4,0.3,8.3v-8.4C70.2,440.6,70.1,440.6,70,440.6z"/>
			<path class="st2" d="M103.6,533.2c0.2,1.8,0.3,3.7,0.3,5.6C104,537,104.1,535,103.6,533.2z"/>
			<path class="st2" d="M103.9,541.6c0,0.1,0,0.2,0,0.3C103.9,541.8,103.9,541.7,103.9,541.6C103.9,541.6,103.9,541.6,103.9,541.6z"
				/>
			<path class="st2" d="M214.9,470.7c-2.4-1.2-4.8-2.4-7.1-3.7c-15.2-8.4-28.4-14.4-40.4-18.6c9.6,8.7,17.3,18.8,18.9,28
				c-9.8-7.2-17-11.9-39.9-12.1c5.5,6,13.2,21.5,16.2,35.6c-14.2,0-37.4,10.3-58.7,41.9c0,0-0.1-0.1-0.1-0.1c0,0.1-0.1,0.2-0.1,0.3
				c0-0.2,0-0.3,0-0.5C82.5,510.2,59.4,500,45.2,500c3-14.1,10.7-29.6,16.2-35.6c-22.9,0.2-30,4.9-39.9,12.1
				c1.6-9.5,9.7-19.9,19.7-28.8C28.8,451.9,14.9,458-1.3,467c-1.8,1-3.6,1.9-5.4,2.8c-19,9.5-41.3,17-41.3,43.8
				c0,16.4,0,41.6,0,60.7c0,15.2,15.5,26.6,37.4,26.6c34.1,0,83.5,0,113.8,0c30.3,0,79.7,0,113.8,0c21.9,0,37.4-11.4,37.4-26.6
				c0-19.1,0-44.3,0-60.7C254.5,487.6,233.5,479.8,214.9,470.7z"/>
			<path class="st1" d="M137.9,431.9c-10.4,6.1-21.8,9.7-33.7,9.7c-12,0-23.4-3.6-33.9-9.7v8.7v8.4c0.6,8.5,2,17.8,5.6,26.3
				c1.5,3.6,3.4,7,5.8,10.1c11.6,15.2,20,26.9,21.8,47.9c0.5,1.8,0.4,3.8,0.3,5.6c0,0.9,0,1.8,0,2.7c0,0,0,0,0,0
				c0.1-26.5,9.1-39.1,22.2-56.2c2.5-3.3,4.5-7,6.1-10.8C138.2,460,137.9,442.9,137.9,431.9z"/>
			<path class="st3" d="M70,431.6c0.1,0.1,0.2,0.1,0.3,0.2c10.4,6.2,21.9,9.7,33.9,9.7c11.9,0,23.3-3.5,33.7-9.7
				c1.1-0.7,1.4-0.9,2.6-1.6c24.2-15.5,42.6-44.9,48.6-74.9c-8.2,12.8-14.5,8.2-15.8-12.4c-0.9-13.7-8.7-29.6-24-40.9
				c2.6,6.5,4.3,13.7,5.1,21.6c0.5,5.5-1.3,17.2-16.3,15.9c-34.1-5.1-64.2-20.9-80.8-38.3c-17.3,12.8-23,31.5-22.7,42.2
				c0.3,12-5.9,26.7-13.1,20.5c7.6,26.8,24.5,52.1,46.3,66.1C68.4,430.7,68.6,430.9,70,431.6z"/>
			<path class="st4" d="M103.9,538.9c-0.1-2-0.2-3.8-0.3-5.6c-1.8-21-10.2-32.7-21.8-47.9c-2.4-3.1-4.3-6.6-5.8-10.1
				c-3.6-8.4-5.1-17.8-5.6-26.3c-0.2-2.9,0-5.5,0-8.2c0-3.3,0-3.5,0-6.2c0-0.9,0-2.2,0-3c-1.5-0.7-1-0.6-2.2-1.2
				c-8.4,3.8-18.5,9.9-26.9,17.2c-10,8.9-18.2,19.3-19.7,28.8c9.8-7.2,17-11.9,39.9-12.1c-5.5,6-13.2,21.5-16.2,35.6
				c14.1,0,37.3,10.2,58.5,41.6c0,0.1,0.1,0.1,0.1,0.2c0,0,0.1,0.1,0.1,0.1c0-0.1,0-0.2,0-0.3C103.9,540.7,103.9,539.8,103.9,538.9z
				"/>
			<path class="st4" d="M137.9,431.9c0.1,11,0.4,28-5.6,42.6c-1.6,3.8-3.6,7.5-6.1,10.8c-13.1,17.1-22.1,29.7-22.2,56.2
				c0,0.1,0,0.2,0,0.3c21.3-31.6,44.5-41.9,58.7-41.9c-3-14.1-10.7-29.6-16.2-35.6c22.9,0.2,30,4.9,39.9,12.1
				c-1.5-9.2-9.2-19.3-18.9-28c-8.5-7.6-27-18.1-27-18.1S138.9,431.3,137.9,431.9z"/>
			<path class="st0" d="M21.3,364.1c7.3,6.2,13.5-8.5,13.1-20.5c-0.3-10.7,5.4-29.4,22.7-42.2c16.6,17.4,46.7,33.2,80.8,38.3
				c15,1.3,16.9-10.4,16.3-15.9c-0.8-7.9-2.5-15.1-5.1-21.6c15.3,11.2,23.1,27.2,24,40.9c1.3,20.5,7.6,25.1,15.8,12.4
				c0.8-1.3,1.7-2.8,2.6-4.4c0.6-1.1,1.2-2.3,1.8-3.5c6.7-14.3-1.7-59.7-28.9-89.4c-4.1,7.4-11.7,12.6-23.1,12.6h-35.3H70.8
				c-14,0-22.3-7.8-25.3-17.8c-0.1-0.2-0.1-0.5-0.2-0.7C16,276.6,5.2,317.2,12,343.4c0.9,3.5,1.8,6.5,2.8,9.1
				C17,358.6,19.2,362.3,21.3,364.1z"/>
		</g>
	</g>
</g>
<ellipse class="st0" cx="103.6" cy="262.8" rx="61.9" ry="29.7"/>
</svg>
